<svg xmlns:dc="http://purl.org/dc/elements/1.1/" xmlns:cc="http://creativecommons.org/ns#" xmlns:rdf="http://www.w3.org/1999/02/22-rdf-syntax-ns#" xmlns:svg="http://www.w3.org/2000/svg" xmlns="http://www.w3.org/2000/svg" xmlns:sodipodi="http://sodipodi.sourceforge.net/DTD/sodipodi-0.dtd" xmlns:inkscape="http://www.inkscape.org/namespaces/inkscape" version="1.1" x="0px" y="0px" viewBox="0 0 100 125"><g transform="translate(0,-952.36218)"><path style="" d="m 50.003746,962.36218 c -18.935639,0 -34.285733,6.82248 -34.285733,15.23811 l 0,10.95239 0,1.54763 0,0.35695 c -0.01527,0 0,0.0952 0,0.47619 0,0.39258 0.05591,0.80785 0.118865,1.19048 0.03434,-0.441 0.01145,-0.95311 0.118867,-1.19048 2.109702,7.23813 16.564202,13.33335 34.047638,13.33335 17.481929,0 31.937175,-6.09522 34.047657,-13.33335 0.106656,0.23733 0.08418,0.74948 0.118871,1.19048 0.04346,-0.3829 0.118862,-0.79509 0.118862,-1.19048 l 0,-0.71428 0,-0.11886 0,-1.07144 0,-11.42858 c 0,-8.41563 -15.348589,-15.23811 -34.285752,-15.23811 z m -34.047639,32.381 c -0.180684,0.6121 -0.238094,1.277 -0.238094,1.9047 l 0,10.95242 0,1.5477 0,0.3569 c -0.01527,0 0,0.095 0,0.4762 0,0.3926 0.05591,0.8078 0.118865,1.1905 0.03434,-0.441 0.01145,-0.9532 0.118867,-1.1905 2.109702,7.2381 16.564202,13.3333 34.047638,13.3333 17.481929,0 31.937175,-6.0952 34.047657,-13.3333 0.106656,0.2373 0.08418,0.7495 0.118871,1.1905 0.04346,-0.3829 0.118862,-0.7951 0.118862,-1.1905 l 0,-0.7143 0,-0.1188 0,-1.0715 0,-11.42862 c 0,-0.6329 -0.09025,-1.2878 -0.238093,-1.9047 -2.109419,7.49362 -16.562488,13.33332 -34.047659,13.33332 -17.483742,0 -31.938051,-5.8397 -34.047639,-13.33332 z m 0,19.04762 c -0.180684,0.6121 -0.238094,1.277 -0.238094,1.9048 l 0,10.9525 0,1.5475 0,0.357 c -0.01527,0 0,0.095 0,0.4762 0,0.4088 0.05857,0.7866 0.118865,1.1904 0.03434,-0.441 0.01145,-0.953 0.118867,-1.1904 2.109702,7.2381 16.564202,13.3334 34.047638,13.3334 17.481929,0 31.937175,-6.0953 34.047657,-13.3334 0.106656,0.2374 0.08418,0.7494 0.118871,1.1904 0.05323,-0.3805 0.118862,-0.8052 0.118862,-1.1904 l 0,-0.8333 0,-1.0716 0,-11.4285 c 0,-0.6329 -0.09025,-1.2878 -0.238093,-1.9047 -2.109419,7.4935 -16.562488,13.3332 -34.047659,13.3332 -17.483742,0 -31.938051,-5.8397 -34.047639,-13.3332 z" fill="#000000"/></g><text x="0" y="115" fill="#000000" font-size="5px" font-weight="bold" font-family="'Helvetica Neue', Helvetica, Arial-Unicode, Arial, Sans-serif">Created by Dalpat Prajapati</text><text x="0" y="120" fill="#000000" font-size="5px" font-weight="bold" font-family="'Helvetica Neue', Helvetica, Arial-Unicode, Arial, Sans-serif">from the Noun Project</text></svg>