<svg xmlns="http://www.w3.org/2000/svg" xmlns:xlink="http://www.w3.org/1999/xlink" version="1.1" x="0px" y="0px" viewBox="0 0 100 125" enable-background="new 0 0 100 100" xml:space="preserve"><path d="M70.197,25.405c-1.082-2.557-2.629-4.853-4.601-6.823c-1.971-1.972-4.267-3.52-6.824-4.601  c-2.647-1.12-5.459-1.688-8.355-1.688c-2.899,0-5.711,0.568-8.358,1.688c-2.556,1.082-4.853,2.629-6.823,4.601  c-1.973,1.97-3.52,4.267-4.602,6.823c-1.121,2.648-1.688,5.46-1.688,8.357c0,4.866,3.443,12.709,10.233,23.309  c4.979,7.773,10.028,14.277,10.078,14.342l1.159,1.488l1.156-1.488c0.051-0.064,5.101-6.568,10.079-14.342  c6.79-10.6,10.233-18.442,10.233-23.309C71.886,30.865,71.318,28.054,70.197,25.405z M50.416,41.125  c-4.595,0-8.321-3.726-8.321-8.322c0-4.596,3.727-8.322,8.321-8.322c4.597,0,8.321,3.726,8.321,8.322  C58.737,37.399,55.013,41.125,50.416,41.125z"/><path d="M83.268,66.261c-1.898-1.745-4.579-3.298-7.967-4.615c-3.057-1.188-6.563-2.135-10.363-2.816  c-0.463,0.746-0.941,1.502-1.435,2.273c-0.083,0.129-0.167,0.26-0.249,0.389c4.064,0.658,7.794,1.625,10.993,2.867  c5.933,2.307,9.335,5.322,9.335,8.274s-3.402,5.968-9.335,8.273c-6.454,2.509-15.065,3.891-24.248,3.891s-17.794-1.382-24.247-3.891  c-5.934-2.306-9.335-5.321-9.335-8.273s3.401-5.968,9.335-8.274c3.396-1.319,7.391-2.328,11.75-2.986  c-0.058-0.09-0.115-0.18-0.174-0.27c-0.521-0.816-1.027-1.617-1.516-2.404c-4.091,0.689-7.858,1.682-11.115,2.947  c-3.388,1.317-6.068,2.87-7.967,4.615c-2.139,1.965-3.224,4.109-3.224,6.372s1.085,4.407,3.224,6.372  c1.898,1.745,4.579,3.297,7.967,4.615c6.781,2.635,15.768,4.087,25.302,4.087s18.521-1.452,25.302-4.087  c3.388-1.318,6.068-2.87,7.967-4.615c2.139-1.965,3.225-4.109,3.225-6.372S85.406,68.226,83.268,66.261z"/><path d="M66.245,72.286c0-2.57-3.134-4.275-7.327-5.202c-0.631,0.913-1.242,1.784-1.824,2.604c1.105,0.196,2.129,0.44,3.043,0.733  c2.643,0.846,3.199,1.727,3.199,1.865s-0.557,1.021-3.199,1.865c-1.973,0.631-4.462,1.045-7.178,1.203  c-0.004,0.006-0.008,0.01-0.012,0.015c-0.825,0.048-1.672,0.073-2.531,0.073c-0.909,0-1.803-0.028-2.674-0.082  c-0.004-0.004-0.006-0.008-0.01-0.014c-2.662-0.164-5.099-0.575-7.037-1.195c-2.643-0.845-3.199-1.727-3.199-1.865  s0.557-1.02,3.199-1.865c0.88-0.281,1.863-0.52,2.923-0.712c-0.581-0.819-1.19-1.688-1.821-2.6c-4.135,0.934-7.21,2.631-7.21,5.177  c0,0.004,0,0.008,0,0.014l0,0c0,4.158,8.205,6.053,15.829,6.053c7.623,0,15.829-1.895,15.829-6.053l0,0  C66.245,72.294,66.245,72.29,66.245,72.286z"/><text x="0" y="115" fill="#000000" font-size="5px" font-weight="bold" font-family="'Helvetica Neue', Helvetica, Arial-Unicode, Arial, Sans-serif">Created by Boudewijn Mijnlieff</text><text x="0" y="120" fill="#000000" font-size="5px" font-weight="bold" font-family="'Helvetica Neue', Helvetica, Arial-Unicode, Arial, Sans-serif">from the Noun Project</text></svg>