<svg xmlns:dc="http://purl.org/dc/elements/1.1/" xmlns:cc="http://creativecommons.org/ns#" xmlns:rdf="http://www.w3.org/1999/02/22-rdf-syntax-ns#" xmlns:svg="http://www.w3.org/2000/svg" xmlns="http://www.w3.org/2000/svg" xmlns:sodipodi="http://sodipodi.sourceforge.net/DTD/sodipodi-0.dtd" xmlns:inkscape="http://www.inkscape.org/namespaces/inkscape" version="1.1" x="0px" y="0px" viewBox="0 0 100 125"><g transform="translate(0,-952.36218)"><g transform="translate(-236,-2896.0001)"><path style="color:#000000;enable-background:accumulate;" d="m 252,3860.3622 c -2.21601,0 -4,1.784 -4,4 l 0,16 c 0,2.216 1.78399,4 4,4 l 68,0 c 2.21601,0 4,-1.784 4,-4 l 0,-16 c 0,-2.216 -1.78399,-4 -4,-4 l -68,0 z m 8,9 c 1.65685,0 3,1.3431 3,3 0,1.6569 -1.34315,3 -3,3 -1.65685,0 -3,-1.3431 -3,-3 0,-1.6569 1.34315,-3 3,-3 z m 15,0 c 1.65685,0 3,1.3431 3,3 0,1.6569 -1.34315,3 -3,3 -1.65685,0 -3,-1.3431 -3,-3 0,-1.6569 1.34315,-3 3,-3 z m 19,1 16,0 c 1.10457,0 2,0.8954 2,2 0,1.1046 -0.89543,2 -2,2 l -16,0 c -1.10457,0 -2,-0.8954 -2,-2 0,-1.1046 0.89543,-2 2,-2 z" fill="#000000" stroke="none" marker="none" visibility="visible" display="inline" overflow="visible"/><path d="m 252,3886.3622 c -2.21601,0 -4,1.784 -4,4 l 0,16 c 0,2.216 1.78399,4 4,4 l 68,0 c 2.21601,0 4,-1.784 4,-4 l 0,-16 c 0,-2.216 -1.78399,-4 -4,-4 l -68,0 z m 8,9 c 1.65685,0 3,1.3431 3,3 0,1.6569 -1.34315,3 -3,3 -1.65685,0 -3,-1.3431 -3,-3 0,-1.6569 1.34315,-3 3,-3 z m 15,0 c 1.65685,0 3,1.3431 3,3 0,1.6569 -1.34315,3 -3,3 -1.65685,0 -3,-1.3431 -3,-3 0,-1.6569 1.34315,-3 3,-3 z m 19,1 16,0 c 1.10457,0 2,0.8954 2,2 0,1.1046 -0.89543,2 -2,2 l -16,0 c -1.10457,0 -2,-0.8954 -2,-2 0,-1.1046 0.89543,-2 2,-2 z" style="color:#000000;enable-background:accumulate;" fill="#000000" stroke="none" marker="none" visibility="visible" display="inline" overflow="visible"/><path style="color:#000000;enable-background:accumulate;" d="m 252,3912.3623 c -2.21601,0 -4,1.784 -4,4 l 0,16 c 0,2.216 1.78399,4 4,4 l 68,0 c 2.21601,0 4,-1.784 4,-4 l 0,-16 c 0,-2.216 -1.78399,-4 -4,-4 l -68,0 z m 8,9 c 1.65685,0 3,1.3431 3,3 0,1.6569 -1.34315,3 -3,3 -1.65685,0 -3,-1.3431 -3,-3 0,-1.6569 1.34315,-3 3,-3 z m 15,0 c 1.65685,0 3,1.3431 3,3 0,1.6569 -1.34315,3 -3,3 -1.65685,0 -3,-1.3431 -3,-3 0,-1.6569 1.34315,-3 3,-3 z m 19,1 16,0 c 1.10457,0 2,0.8954 2,2 0,1.1046 -0.89543,2 -2,2 l -16,0 c -1.10457,0 -2,-0.8954 -2,-2 0,-1.1046 0.89543,-2 2,-2 z" fill="#000000" stroke="none" marker="none" visibility="visible" display="inline" overflow="visible"/></g></g><text x="0" y="115" fill="#000000" font-size="5px" font-weight="bold" font-family="'Helvetica Neue', Helvetica, Arial-Unicode, Arial, Sans-serif">Created by unlimicon</text><text x="0" y="120" fill="#000000" font-size="5px" font-weight="bold" font-family="'Helvetica Neue', Helvetica, Arial-Unicode, Arial, Sans-serif">from the Noun Project</text></svg>