<svg xmlns="http://www.w3.org/2000/svg" xmlns:xlink="http://www.w3.org/1999/xlink" version="1.1" x="0px" y="0px" viewBox="0 0 100 125" enable-background="new 0 0 100 100" xml:space="preserve"><path fill-rule="evenodd" clip-rule="evenodd" fill="#000000" d="M77.418,71.683v0.051h-41c-5.522,0-10-4.478-10-10  c0-5.523,4.478-10,10-10c0.699,0,1.381,0.072,2.04,0.209c0.417-9.572,8.286-17.209,17.96-17.209c7.619,0,14.117,4.741,16.744,11.428  c1.043-0.27,2.13-0.428,3.256-0.428c7.18,0,13,5.821,13,13C89.418,65.575,84.129,71.171,77.418,71.683z M43.062,24.94  c5.099,0.805,9.298,3.802,11.813,7.871c-9.324,0.713-16.842,7.812-18.213,16.934c-0.082-0.001-0.162-0.012-0.245-0.012  c-3.316,0-6.317,1.345-8.489,3.52c-3.413-3.686-5.178-8.827-4.331-14.174C25.064,29.804,33.779,23.474,43.062,24.94z M57.152,32.77  c-2.714-5.056-7.659-8.839-13.764-9.804c-10.365-1.638-20.096,5.436-21.733,15.801c-0.958,6.058,1.076,11.887,4.988,16.021  c-0.676,0.949-1.215,1.998-1.594,3.125c-3.034,0.591-7.672,3.135-8.888,1.462c-1.58-2.173,5.576-7.715,4.654-10.109  c-0.952-2.477-9.959-1.81-10.229-4.388c-0.272-2.615,8.69-3.843,9.099-6.423c0.403-2.553-7.755-6.458-6.706-8.838  c1.057-2.397,9.43,0.989,11.118-1.094c1.613-1.991-3.485-9.468-1.314-11.046c2.173-1.58,7.714,5.576,10.106,4.655  c2.476-0.953,1.809-9.96,4.387-10.229c2.587-0.27,3.786,8.688,6.34,9.084c2.608,0.405,6.568-7.738,8.998-6.66  c2.369,1.052-1.043,9.414,1.019,11.084c1.991,1.614,9.469-3.484,11.048-1.312c1.361,1.872-3.908,6.302-4.674,8.973  C59.077,32.903,58.123,32.805,57.152,32.77z M37.668,73.336c0.232,3.599,0.427,5.261-0.401,6.696  c-0.829,1.436-2.664,1.927-4.099,1.098c-1.435-0.828-1.927-2.662-1.098-4.098C32.898,75.597,34.436,74.935,37.668,73.336z   M44.218,80.115c0.186,2.879,0.342,4.21-0.321,5.357s-2.131,1.541-3.278,0.878c-1.148-0.662-1.541-2.131-0.879-3.278  C40.402,81.925,41.633,81.394,44.218,80.115z M53.668,73.336c0.232,3.599,0.427,5.261-0.401,6.696  c-0.829,1.436-2.664,1.927-4.099,1.098c-1.435-0.828-1.927-2.662-1.098-4.098C48.898,75.597,50.436,74.935,53.668,73.336z   M60.443,80.726c0.209,3.238,0.384,4.735-0.362,6.027c-0.745,1.291-2.396,1.733-3.688,0.988c-1.291-0.746-1.733-2.397-0.987-3.689  C56.15,82.761,57.534,82.164,60.443,80.726z M70.668,73.336c0.232,3.599,0.427,5.261-0.401,6.696  c-0.829,1.436-2.664,1.927-4.099,1.098c-1.435-0.828-1.927-2.662-1.098-4.098C65.898,75.597,67.436,74.935,70.668,73.336z   M79.668,75.336c0.232,3.599,0.427,5.261-0.401,6.696c-0.829,1.436-2.664,1.927-4.099,1.098c-1.435-0.828-1.927-2.662-1.098-4.098  C74.898,77.597,76.436,76.935,79.668,75.336z"/><text x="0" y="115" fill="#000000" font-size="5px" font-weight="bold" font-family="'Helvetica Neue', Helvetica, Arial-Unicode, Arial, Sans-serif">Created by Anusha Narvekar</text><text x="0" y="120" fill="#000000" font-size="5px" font-weight="bold" font-family="'Helvetica Neue', Helvetica, Arial-Unicode, Arial, Sans-serif">from the Noun Project</text></svg>