<svg xmlns="http://www.w3.org/2000/svg" xmlns:xlink="http://www.w3.org/1999/xlink" viewBox="0 0 59 73.75" version="1.1" x="0px" y="0px"><title>80 -Web Settings- (seo, marketing, web, business, internet)</title><desc>Created with Sketch.</desc><g stroke="none" stroke-width="1" fill="none" fill-rule="evenodd"><g transform="translate(-1202.000000, -1222.000000)" fill="#000000"><g transform="translate(1202.000000, 1222.000000)"><path d="M46,42.9951 C44.346,42.9951 43,44.3411 43,45.9951 C43,47.6491 44.346,48.9951 46,48.9951 C47.654,48.9951 49,47.6491 49,45.9951 C49,44.3411 47.654,42.9951 46,42.9951"/><path d="M46,50.9951 C43.243,50.9951 41,48.7521 41,45.9951 C41,43.2381 43.243,40.9951 46,40.9951 C48.757,40.9951 51,43.2381 51,45.9951 C51,48.7521 48.757,50.9951 46,50.9951 M58.188,43.8581 L56.744,43.5811 C56.067,43.4511 55.534,43.0081 55.282,42.3651 C55.029,41.7241 55.119,41.0361 55.527,40.4801 L56.435,39.2441 C56.727,38.8461 56.685,38.2941 56.335,37.9451 L54.376,35.9871 C54.037,35.6481 53.504,35.5991 53.108,35.8661 L51.892,36.6901 C51.321,37.0791 50.63,37.1411 49.997,36.8651 C49.365,36.5901 48.942,36.0401 48.837,35.3571 L48.604,33.8431 C48.528,33.3551 48.108,32.9951 47.615,32.9951 L44.846,32.9951 C44.366,32.9951 43.954,33.3361 43.863,33.8071 L43.505,35.6721 C43.378,36.3341 42.947,36.8621 42.324,37.1201 C41.699,37.3801 41.023,37.3091 40.464,36.9311 L38.892,35.8661 C38.494,35.5991 37.963,35.6481 37.624,35.9871 L35.665,37.9451 C35.315,38.2941 35.273,38.8461 35.565,39.2441 L36.473,40.4801 C36.881,41.0361 36.971,41.7241 36.718,42.3651 C36.466,43.0081 35.933,43.4511 35.256,43.5811 L33.812,43.8581 C33.341,43.9491 33,44.3611 33,44.8411 L33,47.6101 C33,48.1031 33.36,48.5231 33.848,48.5991 L35.362,48.8321 C36.045,48.9371 36.595,49.3601 36.87,49.9921 C37.146,50.6251 37.082,51.3151 36.695,51.8871 L35.871,53.1031 C35.603,53.5001 35.653,54.0321 35.992,54.3711 L37.95,56.3301 C38.298,56.6781 38.85,56.7211 39.249,56.4301 L40.485,55.5221 C41.04,55.1141 41.729,55.0241 42.37,55.2771 C43.013,55.5291 43.456,56.0621 43.586,56.7391 L43.863,58.1831 C43.954,58.6541 44.366,58.9951 44.846,58.9951 L47.615,58.9951 C48.108,58.9951 48.528,58.6351 48.604,58.1471 L48.768,57.0821 C48.873,56.3941 49.319,55.8261 49.961,55.5591 C50.604,55.2951 51.322,55.3811 51.882,55.7921 L52.751,56.4301 C53.151,56.7231 53.702,56.6791 54.05,56.3301 L56.008,54.3711 C56.347,54.0321 56.397,53.5001 56.129,53.1031 L55.305,51.8871 C54.918,51.3151 54.854,50.6251 55.13,49.9921 C55.405,49.3601 55.955,48.9371 56.638,48.8321 L58.152,48.5991 C58.64,48.5231 59,48.1031 59,47.6101 L59,44.8411 C59,44.3611 58.659,43.9491 58.188,43.8581"/><path d="M40.4343,13.0671 C43.3453,12.0621 46.1323,10.6921 48.7173,8.9291 L49.3793,8.3621 C44.5413,3.5901 38.0403,0.5031 30.8353,0.0571 L30.4813,0.3951 C34.7553,3.9031 38.1263,8.2321 40.4343,13.0671"/><path d="M30.0254,2.6384 L30.0254,14.9584 C32.9164,14.8764 35.7544,14.4454 38.4964,13.6754 C36.4694,9.5164 33.6074,5.7634 30.0254,2.6384"/><path d="M28.0254,2.6364 C24.4394,5.7774 21.5794,9.5284 19.5554,13.6774 C22.2934,14.4444 25.1334,14.8764 28.0254,14.9574 L28.0254,2.6364 Z"/><path d="M16.803,14.9001 C13.766,13.8361 10.857,12.3951 8.159,10.5491 L7.269,9.8521 C2.972,14.7301 0.287,21.0561 0.051,27.9951 L14.053,27.9951 C14.175,23.4351 15.111,19.0081 16.803,14.9001"/><path d="M14.0532,29.9951 L0.0502,29.9951 C0.2782,36.6541 2.7552,42.7511 6.7522,47.5421 L7.5212,46.8981 C10.3172,44.9041 13.3272,43.3551 16.4702,42.2161 C14.9942,38.3561 14.1662,34.2351 14.0532,29.9951"/><path d="M28.0254,55.3518 L28.0254,42.0338 C24.9874,42.1188 22.0094,42.5888 19.1434,43.4328 C21.1864,47.9418 24.1914,52.0068 28.0254,55.3518"/><path d="M28.0254,29.9951 L16.0534,29.9951 C16.1664,34.0151 16.9584,37.9201 18.3664,41.5771 C21.4834,40.6371 24.7214,40.1211 28.0254,40.0331 L28.0254,29.9951 Z"/><path d="M17.615,13.07 C19.957,8.161 23.391,3.77 27.757,0.234 L27.98,0.022 C20.456,0.29 13.653,3.433 8.643,8.39 L9.34,8.936 C11.912,10.695 14.698,12.065 17.615,13.07"/><path d="M17.2336,44.0608 C14.2426,45.1338 11.3846,46.5978 8.7436,48.4798 L8.0876,49.0288 C13.1766,54.3448 20.2586,57.7298 28.1226,57.9718 L27.7566,57.7558 C23.1396,54.0158 19.5766,49.3138 17.2336,44.0608"/><path d="M43.9974,27.9951 L58.0004,27.9951 C57.7624,21.0381 55.0654,14.6971 50.7494,9.8141 L49.8914,10.5491 C47.1934,12.3951 44.2844,13.8361 41.2474,14.9001 C42.9394,19.0081 43.8754,23.4351 43.9974,27.9951"/><path d="M39.3319,15.5205 C36.3249,16.3915 33.2039,16.8735 30.0249,16.9575 L30.0249,27.9955 L41.9979,27.9955 C41.8749,23.6475 40.9629,19.4305 39.3319,15.5205"/><path d="M28.0254,16.9578 C24.8464,16.8728 21.7254,16.3918 18.7194,15.5208 C17.0844,19.4328 16.1754,23.6498 16.0534,27.9948 L28.0254,27.9948 L28.0254,16.9578 Z"/><path d="M35.0391,50.7646 L33.5431,50.5756 C32.0691,50.3476 31.0001,49.1006 31.0001,47.6106 L31.0001,44.8406 C31.0001,43.4056 32.0231,42.1666 33.4331,41.8946 L34.8791,41.6176 L33.9531,40.4276 C33.0691,39.2216 33.1961,37.5826 34.2531,36.5296 L36.2101,34.5726 C36.7761,34.0066 37.5291,33.6956 38.3311,33.6956 C38.9311,33.6956 39.5111,33.8716 40.0091,34.2066 L41.5851,35.2746 L41.8991,33.4296 C42.1721,32.0186 43.4101,30.9946 44.8461,30.9946 L47.6151,30.9946 C49.1051,30.9946 50.3521,32.0646 50.5801,33.5376 L50.8131,35.0526 L51.9861,34.2096 C52.4851,33.8726 53.0661,33.6956 53.6681,33.6956 C54.4711,33.6956 55.2241,34.0066 55.7901,34.5736 L57.1591,35.9416 C57.6321,34.0066 57.9181,32.0196 57.9861,29.9946 L30.0251,29.9946 L30.0251,56.7856 L31.8391,57.8576 C31.8811,57.8536 31.9241,57.8516 31.9671,57.8476 L32.1801,57.8266 L34.9991,56.2066 L34.5771,55.7856 C33.5621,54.7706 33.4101,53.1706 34.2151,51.9816 L35.0391,50.7646 Z"/></g></g></g><text x="0" y="74" fill="#000000" font-size="5px" font-weight="bold" font-family="'Helvetica Neue', Helvetica, Arial-Unicode, Arial, Sans-serif">Created by Oliviu Stoian</text><text x="0" y="79" fill="#000000" font-size="5px" font-weight="bold" font-family="'Helvetica Neue', Helvetica, Arial-Unicode, Arial, Sans-serif">from the Noun Project</text></svg>